<?xml version="1.0" standalone="no"?>
<!DOCTYPE svg PUBLIC "-//W3C//DTD SVG 20010904//EN"
 "http://www.w3.org/TR/2001/REC-SVG-20010904/DTD/svg10.dtd">
<svg version="1.0" xmlns="http://www.w3.org/2000/svg"
 width="1024.000000pt" height="1024.000000pt" viewBox="0 0 1024.000000 1024.000000"
 preserveAspectRatio="xMidYMid meet">

<g transform="translate(0.000000,1024.000000) scale(0.100000,-0.100000)"
fill="#000000" stroke="none">
<path d="M0 5120 l0 -5120 5120 0 5120 0 0 5120 0 5120 -5120 0 -5120 0 0
-5120z m4134 3118 c9 -12 16 -35 16 -50 0 -22 16 -41 83 -96 45 -39 100 -88
122 -111 l40 -42 155 1 c204 1 249 -13 387 -122 54 -42 118 -95 143 -117 l45
-40 -33 -1 c-27 0 -47 12 -100 58 -98 87 -171 136 -227 157 -43 15 -90 18
-334 21 l-283 3 -67 39 c-56 34 -80 42 -159 51 -93 12 -94 12 -123 -14 -36
-29 -101 -34 -136 -10 -63 44 -44 148 33 174 54 19 92 1 119 -55 l20 -42 97
-7 c85 -6 103 -11 136 -35 72 -52 97 -60 182 -60 44 0 80 4 80 8 0 8 -69 76
-152 150 -35 31 -56 42 -79 42 -41 0 -69 25 -69 61 0 56 73 82 104 37z m-620
-421 c13 -13 25 -30 28 -38 4 -12 90 -14 589 -17 321 -1 598 -5 616 -7 33 -6
173 -109 173 -128 0 -21 -76 10 -144 58 l-48 35 -592 0 -593 0 -22 -24 c-31
-33 -65 -40 -101 -21 -58 30 -67 90 -21 136 37 36 82 39 115 6z m3423 -265
c84 -4 156 -12 160 -15 16 -17 -32 -42 -109 -58 -113 -23 -112 -23 -120 -34
-6 -8 -75 -15 -155 -15 -13 0 -23 -5 -23 -10 0 -6 -5 -10 -11 -10 -5 0 -7 5
-4 10 11 18 -26 10 -48 -11 -19 -18 -22 -18 -25 -4 -3 13 -7 14 -18 4 -17 -14
-19 -33 -1 -23 8 5 7 2 -2 -9 -8 -10 -16 -15 -19 -12 -3 3 -16 -5 -29 -17 -13
-12 -23 -17 -23 -11 0 6 6 14 13 16 7 3 7 6 1 6 -6 1 -24 -10 -39 -23 -16 -14
-35 -25 -44 -25 -9 -1 -29 -2 -46 -2 -16 -1 -48 -6 -70 -11 -22 -6 -49 -12
-60 -15 -11 -2 -85 -7 -165 -10 -102 -4 -152 -9 -168 -20 -40 -25 -60 -27
-322 -30 -347 -5 -329 12 -331 -335 -1 -129 -5 -215 -9 -193 -8 44 -13 32 -11
-29 0 -21 -2 -36 -6 -32 -3 3 -6 19 -5 36 0 17 -4 28 -9 25 -5 -4 -9 -1 -9 5
0 6 -4 8 -10 5 -5 -3 -10 -2 -10 4 0 5 5 13 10 16 6 3 10 1 10 -4 0 -6 5 -11
11 -11 8 0 8 4 1 13 -10 11 -34 13 -135 8 -11 -1 -15 -6 -11 -12 4 -7 1 -10
-7 -7 -8 2 -18 14 -24 27 -6 13 -16 20 -26 18 -12 -3 -19 5 -25 27 -6 23 -9 0
-12 -83 -1 -63 -1 -120 2 -127 3 -7 29 -31 58 -54 63 -50 138 -135 138 -157 0
-13 -2 -13 -17 -2 -11 10 -14 10 -9 2 16 -28 -19 -11 -53 25 -20 20 -54 51
-76 67 -22 16 -55 42 -72 59 l-33 30 0 290 c0 271 -1 293 -20 323 -40 67 -1
64 -830 62 l-749 -2 -27 22 c-60 47 -305 311 -299 322 9 13 3682 5 3922 -9z
m-2205 -479 c15 -7 38 -28 52 -46 26 -33 26 -37 26 -205 0 -146 -2 -172 -15
-172 -14 0 -19 12 -16 33 1 6 -13 10 -29 9 -3 0 -7 8 -7 19 -1 11 1 17 5 15 4
-2 12 7 19 20 6 13 7 22 3 19 -5 -3 -8 3 -8 12 0 10 -1 25 -3 33 -2 8 2 14 9
13 19 -4 14 15 -7 22 -10 3 -23 15 -30 28 l-12 22 5 -22 c2 -12 0 -23 -4 -25
-5 -2 -10 -23 -12 -48 -1 -25 -7 -48 -13 -52 -6 -5 -4 -8 5 -8 11 0 11 -3 3
-8 -15 -9 -47 -234 -40 -282 6 -41 86 -210 99 -210 6 0 12 9 15 20 9 33 21 23
27 -22 8 -68 15 -986 9 -1160 -5 -129 -9 -158 -21 -158 -18 0 -210 183 -245
234 -50 74 -52 96 -48 843 1 381 0 702 -4 713 -6 19 -15 20 -294 20 -400 0
-404 1 -596 205 -102 108 -126 138 -114 146 23 16 1207 8 1241 -8z m1123 0
c-22 -3 -44 -9 -50 -15 -7 -8 -5 -9 6 -5 9 3 16 -1 16 -9 0 -19 -21 -23 -153
-26 -105 -3 -112 -5 -145 -32 -48 -41 -58 -62 -60 -136 -3 -117 -16 -135 -19
-25 -3 111 -4 126 -14 171 -6 27 -3 35 24 58 l32 26 201 -2 c111 -1 184 -3
162 -5z m650 -215 c6 -28 3 -36 -23 -59 -65 -58 -106 -64 -437 -64 l-300 0
-10 -23 c-15 -33 -33 -25 -26 12 1 5 -6 3 -15 -5 -16 -13 -16 -12 -7 6 18 33
45 51 103 71 48 17 86 19 295 19 231 0 242 1 300 24 33 14 69 30 80 38 28 19
33 17 40 -19z m-1755 -28 c0 -4 -6 -10 -14 -13 -12 -5 -14 2 -7 31 2 7 21 -10
21 -18z m-23 -72 c-3 -8 -6 -5 -6 6 -1 11 2 17 5 13 3 -3 4 -12 1 -19z m937
-210 c-3 -4 2 -8 10 -8 24 0 19 -18 -10 -36 -22 -15 -27 -15 -35 -3 -13 20
-11 29 6 35 8 4 13 9 10 13 -2 4 2 8 10 8 8 0 12 -4 9 -9z m72 -648 l-5 -86
-383 -382 c-346 -347 -383 -381 -397 -367 -24 24 -22 433 3 498 13 36 58 85
212 236 115 114 199 189 206 185 6 -4 8 -3 5 3 -4 6 5 21 20 34 14 13 23 19
20 13 -4 -7 3 -11 18 -11 14 0 25 3 25 7 0 4 7 11 16 14 15 6 15 3 -1 -21 -10
-16 -27 -38 -38 -50 -24 -27 -12 -31 15 -6 10 9 34 18 54 18 19 1 37 5 40 8 4
3 20 -1 36 -9 22 -12 33 -13 43 -4 8 7 19 9 25 5 7 -4 10 36 10 123 0 129 0
129 30 167 17 21 31 45 32 54 4 51 18 -359 14 -429z m-459 375 c-2 -5 -10 -10
-17 -10 -7 0 -15 5 -17 10 -2 6 6 11 17 11 11 0 19 -5 17 -11z m3 -145 c0 -5
-2 -10 -4 -10 -3 0 -8 5 -11 10 -3 6 -1 10 4 10 6 0 11 -4 11 -10z m-163 -135
c-4 -8 -13 -15 -22 -15 -21 0 -19 28 3 32 22 5 26 2 19 -17z m618 -559 c7
-172 4 -215 -23 -306 -15 -49 -32 -71 -173 -215 -327 -336 -407 -420 -403
-424 2 -2 23 -8 46 -12 24 -4 70 -15 103 -23 33 -9 77 -16 97 -16 20 0 39 -4
42 -9 4 -5 36 -14 74 -19 37 -6 83 -13 102 -16 19 -3 75 -15 124 -26 90 -20
254 -39 356 -41 74 -1 29 -16 -55 -18 -33 -1 -78 -6 -100 -11 -22 -5 -83 -18
-135 -29 -184 -40 -528 -75 -740 -75 -227 -1 -613 39 -765 79 -64 17 -141 27
-264 34 -96 6 -176 12 -178 15 -2 2 44 7 104 10 59 4 158 14 218 23 61 8 144
19 186 24 42 4 97 15 123 24 59 20 151 38 191 37 38 -1 224 45 248 61 16 11
19 29 21 157 3 173 0 167 139 308 255 259 635 632 644 632 7 0 13 -64 18 -164z
m-2895 -1681 l0 -85 -178 0 -179 0 -6 -107 c-4 -58 -7 -180 -7 -270 l0 -164
-101 3 -102 3 2 104 c1 58 -1 178 -5 268 l-7 163 -181 2 -181 3 -3 83 -3 82
476 0 475 0 0 -85z m604 7 c292 -456 389 -608 393 -619 4 -10 -21 -13 -113
-13 l-119 0 -45 73 -46 72 -265 -3 -265 -3 -43 -69 -43 -70 -120 0 -120 0 15
23 c8 12 41 63 73 112 75 116 179 276 287 443 l86 132 138 -1 138 0 49 -77z
m890 -77 c78 -82 185 -197 239 -255 l99 -105 -4 255 -3 255 108 3 107 3 -2
-353 -3 -353 -139 -3 -139 -3 -177 183 c-97 101 -208 217 -246 260 l-69 76 -5
-256 -5 -257 -102 -3 -103 -3 0 356 0 356 152 -3 151 -3 141 -150z m1046 28
c99 -147 229 -333 234 -333 2 0 75 104 162 230 l157 231 146 -3 146 -3 -1 -27
c0 -16 -1 -174 -2 -353 l-2 -326 -97 3 -98 3 -3 238 c-1 130 -6 237 -10 237
-4 0 -79 -108 -167 -240 l-160 -240 -60 0 c-33 0 -66 4 -72 8 -7 5 -77 100
-155 213 -79 113 -153 219 -165 235 l-22 29 -1 -220 c0 -121 -3 -230 -6 -242
-6 -22 -11 -23 -99 -23 l-92 0 -6 143 c-4 78 -7 238 -7 355 l0 212 148 0 148
0 84 -127z m1737 -25 c55 -84 137 -211 183 -283 46 -71 105 -163 132 -202 l48
-73 -120 0 -120 0 -48 73 -48 72 -261 3 -262 2 -51 -75 -51 -75 -114 0 c-63 0
-115 2 -115 6 0 3 17 31 39 62 21 31 81 125 132 207 52 83 137 214 189 292
l95 143 136 0 137 0 99 -152z m543 15 c63 -75 124 -148 136 -161 l21 -25 119
148 c65 81 124 153 130 161 9 11 44 14 153 14 l142 0 -88 -99 c-48 -54 -145
-162 -215 -240 l-128 -142 0 -68 c0 -38 -3 -89 -6 -115 l-7 -47 -101 3 -101 3
-2 108 -2 108 -123 135 c-68 75 -167 185 -221 245 l-98 109 138 0 138 0 115
-137z m-3545 -877 c44 -19 55 -42 55 -116 0 -55 -3 -65 -29 -91 -26 -26 -37
-29 -89 -29 -90 0 -121 38 -113 140 7 90 86 133 176 96z m821 4 c27 0 59 -6
69 -14 27 -19 25 -79 -3 -109 l-22 -23 30 -47 30 -47 -28 0 c-21 0 -34 10 -57
45 -21 30 -37 45 -52 45 -21 0 -23 -5 -23 -45 0 -41 -2 -45 -25 -45 l-25 0 0
118 c0 65 3 122 7 126 4 4 17 5 28 2 11 -3 43 -6 71 -6z m799 -4 c48 -20 61
-52 57 -143 -3 -46 -47 -92 -92 -94 -68 -2 -82 1 -111 30 -25 25 -29 37 -29
85 0 69 14 101 54 120 39 19 77 20 121 2z m1181 -1 c71 -30 86 -152 24 -207
-25 -24 -39 -28 -86 -28 -48 0 -59 4 -85 29 -26 26 -29 37 -29 89 0 69 22 106
73 121 46 13 63 13 103 -4z m474 -116 l0 -119 -25 0 -25 0 0 124 0 123 25 -5
c25 -4 25 -4 25 -123z m285 116 c38 -19 55 -51 55 -104 0 -93 -36 -131 -125
-131 -49 0 -60 4 -86 29 -26 26 -29 36 -29 89 0 50 4 66 25 91 36 42 102 53
160 26z m-5005 -8 c58 -29 64 -145 10 -199 -26 -26 -34 -28 -104 -28 l-76 0 0
120 0 120 73 0 c39 0 83 -6 97 -13z m320 -7 c0 -18 -7 -20 -60 -20 l-60 0 0
-30 c0 -30 1 -30 55 -30 48 0 55 -2 55 -20 0 -18 -7 -20 -55 -20 -54 0 -55 0
-55 -30 0 -30 0 -30 59 -30 50 0 59 -3 64 -20 5 -19 0 -20 -84 -20 l-89 0 0
120 0 120 85 0 c78 0 85 -2 85 -20z m160 -47 c43 -129 42 -129 82 -27 30 79
37 89 61 92 l27 3 -18 -48 c-83 -209 -74 -194 -107 -191 -28 3 -33 10 -72 108
-23 58 -42 111 -43 118 0 6 11 12 24 12 20 0 26 -10 46 -67z m430 47 c0 -18
-7 -20 -66 -20 l-65 0 3 -27 c3 -27 5 -28 61 -27 54 1 57 0 57 -22 0 -23 -4
-24 -60 -24 l-60 0 0 -30 0 -30 64 0 c55 0 64 -3 69 -20 5 -19 0 -20 -89 -20
l-94 0 0 120 0 120 90 0 c83 0 90 -1 90 -20z m152 -77 l3 -98 63 -3 c54 -3 62
-6 62 -22 0 -18 -7 -20 -90 -20 l-90 0 0 113 c0 63 3 117 7 120 3 4 14 7 24 7
16 0 19 -11 21 -97z m713 77 c23 -26 23 -86 1 -108 -9 -9 -40 -19 -69 -22
l-52 -5 -3 -42 c-3 -38 -6 -43 -28 -43 l-24 0 0 120 0 120 78 0 c67 0 82 -3
97 -20z m285 0 c0 -18 -7 -20 -60 -20 l-60 0 0 -30 c0 -30 1 -30 55 -30 48 0
55 -2 55 -20 0 -18 -7 -20 -60 -20 l-60 0 0 -30 0 -30 65 0 c58 0 65 -2 65
-20 0 -19 -7 -20 -90 -20 l-90 0 0 74 c0 40 3 94 6 120 l7 46 83 0 c77 0 84
-2 84 -20z m718 4 c16 -11 22 -25 22 -55 0 -56 -26 -79 -90 -79 l-50 0 0 -45
c0 -41 -2 -45 -25 -45 l-25 0 0 120 0 120 73 0 c49 0 80 -5 95 -16z m620 0
c33 -23 31 -86 -4 -113 l-26 -20 25 -33 c40 -55 41 -58 10 -58 -22 0 -34 9
-56 45 -21 33 -35 45 -53 45 -22 0 -24 -4 -24 -45 0 -41 -2 -45 -25 -45 l-25
0 0 120 0 120 78 0 c54 0 84 -5 100 -16z m322 -4 c0 -17 -7 -20 -40 -20 l-40
0 0 -100 0 -100 -25 0 -25 0 0 100 0 100 -45 0 c-38 0 -45 3 -45 20 0 19 7 20
110 20 103 0 110 -1 110 -20z m260 0 c0 -18 -7 -20 -60 -20 l-60 0 0 -30 c0
-30 1 -30 55 -30 48 0 55 -2 55 -20 0 -18 -7 -20 -55 -20 l-55 0 0 -50 c0 -47
-2 -50 -25 -50 l-25 0 0 120 0 120 85 0 c78 0 85 -2 85 -20z m470 -27 c0 -27
3 -71 6 -100 l7 -52 55 -3 c44 -2 56 -7 58 -20 2 -16 -8 -18 -84 -18 l-87 0 3
120 c3 111 5 120 23 120 16 0 19 -7 19 -47z"/>
<path d="M4747 6904 c-3 -16 -3 -33 1 -38 9 -16 23 35 13 51 -6 12 -9 9 -14
-13z"/>
<path d="M3172 3563 c-43 -65 -81 -124 -85 -130 -7 -10 29 -13 163 -13 151 0
171 2 166 15 -10 28 -151 244 -159 245 -4 0 -42 -53 -85 -117z"/>
<path d="M6792 3561 c-45 -66 -85 -127 -88 -135 -5 -14 14 -16 170 -16 107 0
176 4 176 10 0 12 -162 260 -170 260 -4 0 -43 -54 -88 -119z"/>
<path d="M4007 2772 c-22 -24 -23 -105 -1 -126 21 -22 77 -20 97 2 19 21 23
92 7 123 -14 26 -80 26 -103 1z"/>
<path d="M4880 2755 c0 -34 1 -35 39 -35 44 0 66 19 56 50 -5 16 -15 20 -51
20 -44 0 -44 0 -44 -35z"/>
<path d="M5660 2793 c-8 -3 -23 -12 -32 -21 -25 -21 -25 -103 0 -125 23 -21
76 -22 96 -1 20 19 22 117 4 132 -18 14 -51 21 -68 15z"/>
<path d="M6815 2775 c-29 -29 -34 -88 -9 -123 17 -25 84 -31 102 -9 34 41 20
140 -21 151 -37 10 -47 7 -72 -19z"/>
<path d="M7566 2779 c-22 -17 -26 -29 -26 -68 0 -58 21 -81 72 -81 47 0 63 21
63 82 0 40 -5 53 -24 69 -30 24 -52 24 -85 -2z"/>
<path d="M2550 2710 l0 -80 38 0 c52 0 72 18 79 68 8 63 -14 92 -72 92 l-45 0
0 -80z"/>
<path d="M4322 2753 c3 -32 7 -38 29 -41 36 -4 74 28 65 56 -6 18 -15 22 -52
22 l-45 0 3 -37z"/>
<path d="M5330 2755 c0 -34 1 -35 39 -35 47 0 67 19 51 49 -8 16 -21 21 -50
21 -39 0 -40 -1 -40 -35z"/>
<path d="M5940 2755 l0 -36 48 3 c45 3 47 4 47 33 0 29 -2 30 -47 33 l-48 3 0
-36z"/>
</g>
</svg>
